<?xml version="1.0" encoding="UTF-8"?>
<svg xmlns="http://www.w3.org/2000/svg" xmlns:xlink="http://www.w3.org/1999/xlink" width="24px" height="24px" viewBox="0 0 24 24" version="1.1">
<g id="surface1">
<path style=" stroke:none;fill-rule:nonzero;fill:rgb(0%,26.666668%,50.980395%);fill-opacity:1;" d="M 23.660156 7.429688 C 23.667969 7.085938 23.570312 6.746094 23.375 6.445312 C 23.175781 6.152344 22.882812 5.914062 22.53125 5.75 C 19.425781 4.234375 16.320312 2.71875 13.210938 1.207031 C 12.375 0.800781 11.5625 0.8125 10.730469 1.230469 C 9.496094 1.84375 3.304688 4.84375 1.460938 5.75 C 0.703125 6.121094 0.332031 6.691406 0.332031 7.429688 L 0.332031 16.570312 C 0.324219 16.90625 0.417969 17.238281 0.605469 17.539062 C 0.808594 17.839844 1.105469 18.085938 1.464844 18.25 C 3.308594 19.160156 9.5 22.15625 10.734375 22.773438 C 11.566406 23.1875 12.378906 23.203125 13.21875 22.792969 C 16.320312 21.277344 19.429688 19.761719 22.539062 18.25 C 22.894531 18.085938 23.195312 17.835938 23.394531 17.535156 C 23.582031 17.238281 23.675781 16.90625 23.667969 16.570312 L 23.667969 7.429688 Z M 23.660156 7.429688 "/>
<path style=" stroke:none;fill-rule:nonzero;fill:rgb(0%,34.901962%,61.176473%);fill-opacity:1;" d="M 23.664062 16.570312 C 23.671875 16.90625 23.578125 17.238281 23.390625 17.539062 C 23.34375 17.609375 23.292969 17.675781 23.234375 17.742188 L 11.996094 12 L 22.53125 5.75 C 22.882812 5.914062 23.171875 6.152344 23.375 6.445312 C 23.570312 6.746094 23.671875 7.085938 23.660156 7.429688 C 23.664062 10.476562 23.664062 16.570312 23.664062 16.570312 Z M 23.664062 16.570312 "/>
<path style=" stroke:none;fill-rule:nonzero;fill:rgb(39.607844%,60.392159%,82.352942%);fill-opacity:1;" d="M 23.375 6.445312 L 0.601562 17.539062 C 0.417969 17.238281 0.324219 16.90625 0.332031 16.570312 L 0.332031 7.429688 C 0.332031 6.691406 0.703125 6.121094 1.460938 5.75 C 3.304688 4.84375 9.496094 1.84375 10.734375 1.226562 C 11.5625 0.8125 12.375 0.796875 13.210938 1.207031 C 16.316406 2.722656 19.421875 4.238281 22.53125 5.75 C 22.882812 5.914062 23.171875 6.152344 23.375 6.445312 Z M 23.375 6.445312 "/>
<path style=" stroke:none;fill-rule:nonzero;fill:rgb(100%,100%,100%);fill-opacity:1;" d="M 12.449219 15.691406 C 10.886719 15.695312 9.445312 14.976562 8.691406 13.820312 C 8.65625 13.765625 8.617188 13.707031 8.585938 13.648438 C 7.640625 11.996094 8.304688 10.007812 10.132812 9.019531 C 11.960938 8.03125 14.375 8.351562 15.753906 9.769531 C 15.808594 9.828125 15.859375 9.886719 15.917969 9.949219 C 15.941406 9.980469 15.96875 10.011719 15.992188 10.042969 L 19.753906 8.210938 C 19.664062 8.085938 19.566406 7.964844 19.464844 7.847656 C 19.414062 7.785156 19.359375 7.722656 19.308594 7.664062 C 16.597656 4.6875 11.644531 3.957031 7.898438 5.980469 C 4.152344 8.003906 2.859375 12.109375 4.914062 15.4375 C 4.953125 15.496094 4.988281 15.554688 5.023438 15.609375 C 6.503906 17.820312 9.25 19.214844 12.253906 19.28125 C 15.261719 19.347656 18.089844 18.082031 19.707031 15.9375 L 16.027344 14.058594 C 15.238281 15.078125 13.890625 15.691406 12.449219 15.691406 Z M 12.449219 15.691406 "/>
</g>
</svg>
